<svg xmlns="http://www.w3.org/2000/svg" viewBox="0 0 1100 750" font-family="'Segoe UI', Arial, sans-serif">
  <defs>
    <filter id="shadow" x="-2%" y="-2%" width="104%" height="104%">
      <feDropShadow dx="2" dy="2" stdDeviation="3" flood-opacity="0.15"/>
    </filter>
    <linearGradient id="headerGrad" x1="0%" y1="0%" x2="100%" y2="0%">
      <stop offset="0%" style="stop-color:#1E3A5F"/>
      <stop offset="100%" style="stop-color:#2563EB"/>
    </linearGradient>
    <linearGradient id="goldGrad" x1="0%" y1="0%" x2="100%" y2="0%">
      <stop offset="0%" style="stop-color:#D97706"/>
      <stop offset="100%" style="stop-color:#F59E0B"/>
    </linearGradient>
  </defs>

  <!-- Background -->
  <rect width="1100" height="750" rx="12" fill="#F0F6FF"/>

  <!-- Title -->
  <rect x="0" y="0" width="1100" height="60" rx="12" fill="url(#headerGrad)"/>
  <rect x="0" y="30" width="1100" height="30" fill="url(#headerGrad)"/>
  <text x="550" y="40" text-anchor="middle" fill="white" font-size="22" font-weight="bold">Figure 5: TII Strategic Stack --- Falcon + Memory = Agent Platform</text>

  <!-- LEFT: The Stack -->

  <!-- Layer 4: Applications (top) -->
  <rect x="80" y="90" width="500" height="100" rx="14" fill="white" stroke="#6366F1" stroke-width="2.5" filter="url(#shadow)"/>
  <rect x="80" y="90" width="500" height="35" rx="14" fill="#6366F1"/>
  <rect x="80" y="112" width="500" height="13" fill="#6366F1"/>
  <text x="330" y="115" text-anchor="middle" fill="white" font-size="15" font-weight="bold">AGENT APPLICATIONS</text>
  <text x="330" y="140" text-anchor="middle" fill="#1E3A5F" font-size="12" font-weight="bold">What agents DO</text>

  <rect x="100" y="150" width="100" height="28" rx="6" fill="#EDE9FE" stroke="#6366F1" stroke-width="1"/>
  <text x="150" y="168" text-anchor="middle" fill="#6366F1" font-size="10">Level Up CTF</text>
  <rect x="210" y="150" width="100" height="28" rx="6" fill="#EDE9FE" stroke="#6366F1" stroke-width="1"/>
  <text x="260" y="168" text-anchor="middle" fill="#6366F1" font-size="10">Enterprise</text>
  <rect x="320" y="150" width="100" height="28" rx="6" fill="#EDE9FE" stroke="#6366F1" stroke-width="1"/>
  <text x="370" y="168" text-anchor="middle" fill="#6366F1" font-size="10">Autonomous</text>
  <rect x="430" y="150" width="130" height="28" rx="6" fill="#EDE9FE" stroke="#6366F1" stroke-width="1"/>
  <text x="495" y="168" text-anchor="middle" fill="#6366F1" font-size="10">Research Agents</text>

  <!-- Layer 3: MEMORY (the key layer) -->
  <rect x="80" y="210" width="500" height="120" rx="14" fill="white" stroke="#D97706" stroke-width="4" filter="url(#shadow)"/>
  <rect x="80" y="210" width="500" height="38" rx="14" fill="url(#goldGrad)"/>
  <rect x="80" y="234" width="500" height="14" fill="url(#goldGrad)"/>
  <text x="330" y="237" text-anchor="middle" fill="white" font-size="16" font-weight="bold">MEMORY INFRASTRUCTURE</text>

  <!-- "BUILD THIS" callout -->
  <rect x="490" y="255" width="80" height="40" rx="15" fill="#DC2626"/>
  <text x="530" y="273" text-anchor="middle" fill="white" font-size="11" font-weight="bold">BUILD</text>
  <text x="530" y="288" text-anchor="middle" fill="white" font-size="11" font-weight="bold">THIS</text>

  <text x="330" y="268" text-anchor="middle" fill="#1E3A5F" font-size="13" font-weight="bold">What agents KNOW</text>
  <text x="330" y="290" text-anchor="middle" fill="#92400E" font-size="11">Shared | Persistent | Verifiable | Blockchain-Synced</text>

  <rect x="100" y="298" width="120" height="24" rx="6" fill="#FEF3C7" stroke="#D97706" stroke-width="1"/>
  <text x="160" y="314" text-anchor="middle" fill="#92400E" font-size="9">Federation Chain</text>
  <rect x="230" y="298" width="100" height="24" rx="6" fill="#FEF3C7" stroke="#D97706" stroke-width="1"/>
  <text x="280" y="314" text-anchor="middle" fill="#92400E" font-size="9">PoE Consensus</text>
  <rect x="340" y="298" width="90" height="24" rx="6" fill="#FEF3C7" stroke="#D97706" stroke-width="1"/>
  <text x="385" y="314" text-anchor="middle" fill="#92400E" font-size="9">Distillation</text>
  <rect x="440" y="298" width="120" height="24" rx="6" fill="#FEF3C7" stroke="#D97706" stroke-width="1"/>
  <text x="500" y="314" text-anchor="middle" fill="#92400E" font-size="9">Cross-Fed Intel</text>

  <!-- Layer 2: Falcon -->
  <rect x="80" y="350" width="500" height="90" rx="14" fill="white" stroke="#059669" stroke-width="2.5" filter="url(#shadow)"/>
  <rect x="80" y="350" width="500" height="35" rx="14" fill="#059669"/>
  <rect x="80" y="372" width="500" height="13" fill="#059669"/>
  <text x="330" y="375" text-anchor="middle" fill="white" font-size="15" font-weight="bold">FALCON LLMs</text>
  <text x="330" y="402" text-anchor="middle" fill="#1E3A5F" font-size="13" font-weight="bold">How agents THINK</text>
  <text x="330" y="422" text-anchor="middle" fill="#059669" font-size="11">TII already owns this layer</text>

  <!-- Layer 1: Compute -->
  <rect x="80" y="460" width="500" height="80" rx="14" fill="white" stroke="#2563EB" stroke-width="2.5" filter="url(#shadow)"/>
  <rect x="80" y="460" width="500" height="35" rx="14" fill="#2563EB"/>
  <rect x="80" y="482" width="500" height="13" fill="#2563EB"/>
  <text x="330" y="485" text-anchor="middle" fill="white" font-size="15" font-weight="bold">COMPUTE &amp; CLOUD</text>
  <text x="330" y="512" text-anchor="middle" fill="#1E3A5F" font-size="13" font-weight="bold">Where agents RUN</text>
  <text x="330" y="530" text-anchor="middle" fill="#2563EB" font-size="11">TII already owns this layer</text>

  <!-- RIGHT SIDE: Competitive Landscape -->
  <rect x="620" y="90" width="450" height="305" rx="14" fill="white" stroke="#1E3A5F" stroke-width="2" filter="url(#shadow)"/>
  <rect x="620" y="90" width="450" height="38" rx="14" fill="#1E3A5F"/>
  <rect x="620" y="115" width="450" height="13" fill="#1E3A5F"/>
  <text x="845" y="117" text-anchor="middle" fill="white" font-size="15" font-weight="bold">Competitive Landscape</text>

  <!-- Table header -->
  <rect x="640" y="140" width="100" height="30" rx="4" fill="#F3F4F6"/>
  <text x="690" y="159" text-anchor="middle" fill="#374151" font-size="10" font-weight="bold">Player</text>
  <rect x="745" y="140" width="65" height="30" rx="4" fill="#F3F4F6"/>
  <text x="778" y="159" text-anchor="middle" fill="#374151" font-size="10" font-weight="bold">LLM</text>
  <rect x="815" y="140" width="75" height="30" rx="4" fill="#F3F4F6"/>
  <text x="852" y="159" text-anchor="middle" fill="#374151" font-size="10" font-weight="bold">Agents</text>
  <rect x="895" y="140" width="75" height="30" rx="4" fill="#F3F4F6"/>
  <text x="932" y="159" text-anchor="middle" fill="#374151" font-size="10" font-weight="bold">Memory</text>
  <rect x="975" y="140" width="80" height="30" rx="4" fill="#F3F4F6"/>
  <text x="1015" y="159" text-anchor="middle" fill="#374151" font-size="10" font-weight="bold">Federation</text>

  <!-- OpenAI row -->
  <text x="690" y="192" text-anchor="middle" fill="#374151" font-size="11">OpenAI</text>
  <text x="778" y="192" text-anchor="middle" fill="#059669" font-size="11">GPT-4o</text>
  <text x="852" y="192" text-anchor="middle" fill="#059669" font-size="11">Operator</text>
  <text x="932" y="192" text-anchor="middle" fill="#DC2626" font-size="11">Per-user</text>
  <text x="1015" y="192" text-anchor="middle" fill="#DC2626" font-size="11">No</text>

  <!-- Google row -->
  <text x="690" y="222" text-anchor="middle" fill="#374151" font-size="11">Google</text>
  <text x="778" y="222" text-anchor="middle" fill="#059669" font-size="11">Gemini</text>
  <text x="852" y="222" text-anchor="middle" fill="#059669" font-size="11">Vertex AI</text>
  <text x="932" y="222" text-anchor="middle" fill="#DC2626" font-size="11">Per-session</text>
  <text x="1015" y="222" text-anchor="middle" fill="#DC2626" font-size="11">No</text>

  <!-- Anthropic row -->
  <text x="690" y="252" text-anchor="middle" fill="#374151" font-size="11">Anthropic</text>
  <text x="778" y="252" text-anchor="middle" fill="#059669" font-size="11">Claude</text>
  <text x="852" y="252" text-anchor="middle" fill="#059669" font-size="11">MCP</text>
  <text x="932" y="252" text-anchor="middle" fill="#DC2626" font-size="11">File-based</text>
  <text x="1015" y="252" text-anchor="middle" fill="#DC2626" font-size="11">No</text>

  <!-- Microsoft row -->
  <text x="690" y="282" text-anchor="middle" fill="#374151" font-size="11">Microsoft</text>
  <text x="778" y="282" text-anchor="middle" fill="#059669" font-size="11">Copilot</text>
  <text x="852" y="282" text-anchor="middle" fill="#059669" font-size="11">AutoGen</text>
  <text x="932" y="282" text-anchor="middle" fill="#DC2626" font-size="11">No</text>
  <text x="1015" y="282" text-anchor="middle" fill="#DC2626" font-size="11">No</text>

  <!-- Line separator -->
  <line x1="640" y1="296" x2="1050" y2="296" stroke="#D97706" stroke-width="2"/>

  <!-- TII row (highlighted) -->
  <rect x="640" y="305" width="415" height="35" rx="6" fill="#FEF3C7" stroke="#D97706" stroke-width="2"/>
  <text x="690" y="327" text-anchor="middle" fill="#D97706" font-size="12" font-weight="bold">TII + Us</text>
  <text x="778" y="327" text-anchor="middle" fill="#059669" font-size="12" font-weight="bold">Falcon</text>
  <text x="852" y="327" text-anchor="middle" fill="#059669" font-size="12" font-weight="bold">Level Up</text>
  <text x="932" y="327" text-anchor="middle" fill="#059669" font-size="12" font-weight="bold">Blockchain</text>
  <text x="1015" y="327" text-anchor="middle" fill="#059669" font-size="12" font-weight="bold">Yes</text>

  <!-- "Nobody else" callout -->
  <rect x="640" y="350" width="415" height="38" rx="6" fill="#FEE2E2"/>
  <text x="848" y="366" text-anchor="middle" fill="#DC2626" font-size="10" font-weight="bold">Nobody is building institutional memory infrastructure.</text>
  <text x="848" y="381" text-anchor="middle" fill="#DC2626" font-size="10" font-weight="bold">First mover owns the standard.</text>

  <!-- BOTTOM: Network Effect / Cross-Federation -->
  <rect x="620" y="415" width="450" height="310" rx="14" fill="white" stroke="#7C3AED" stroke-width="2" filter="url(#shadow)"/>
  <rect x="620" y="415" width="450" height="38" rx="14" fill="#7C3AED"/>
  <rect x="620" y="440" width="450" height="13" fill="#7C3AED"/>
  <text x="845" y="442" text-anchor="middle" fill="white" font-size="15" font-weight="bold">Cross-Federation Network Effect</text>

  <!-- Federation 1 -->
  <rect x="645" y="470" width="120" height="70" rx="10" fill="#ECFEFF" stroke="#0891B2" stroke-width="2"/>
  <text x="705" y="493" text-anchor="middle" fill="#0891B2" font-size="11" font-weight="bold">Level Up</text>
  <text x="705" y="508" text-anchor="middle" fill="#0891B2" font-size="11" font-weight="bold">Federation</text>
  <text x="705" y="528" text-anchor="middle" fill="#6B7280" font-size="9">23,891 memories</text>

  <!-- Federation 2 -->
  <rect x="785" y="470" width="120" height="70" rx="10" fill="#FEF3C7" stroke="#D97706" stroke-width="2"/>
  <text x="845" y="493" text-anchor="middle" fill="#D97706" font-size="11" font-weight="bold">Enterprise</text>
  <text x="845" y="508" text-anchor="middle" fill="#D97706" font-size="11" font-weight="bold">Client A</text>
  <text x="845" y="528" text-anchor="middle" fill="#6B7280" font-size="9">45,000 memories</text>

  <!-- Federation 3 -->
  <rect x="925" y="470" width="120" height="70" rx="10" fill="#D1FAE5" stroke="#059669" stroke-width="2"/>
  <text x="985" y="493" text-anchor="middle" fill="#059669" font-size="11" font-weight="bold">National</text>
  <text x="985" y="508" text-anchor="middle" fill="#059669" font-size="11" font-weight="bold">Program</text>
  <text x="985" y="528" text-anchor="middle" fill="#6B7280" font-size="9">67,200 memories</text>

  <!-- Arrows to cross-federation -->
  <line x1="705" y1="540" x2="770" y2="575" stroke="#7C3AED" stroke-width="1.5" stroke-dasharray="4,3"/>
  <line x1="845" y1="540" x2="845" y2="575" stroke="#7C3AED" stroke-width="1.5" stroke-dasharray="4,3"/>
  <line x1="985" y1="540" x2="920" y2="575" stroke="#7C3AED" stroke-width="1.5" stroke-dasharray="4,3"/>

  <!-- Cross-fed intelligence box -->
  <rect x="720" y="575" width="250" height="60" rx="10" fill="#EDE9FE" stroke="#7C3AED" stroke-width="2.5"/>
  <text x="845" y="598" text-anchor="middle" fill="#5B21B6" font-size="12" font-weight="bold">Cross-Federation</text>
  <text x="845" y="614" text-anchor="middle" fill="#5B21B6" font-size="12" font-weight="bold">Intelligence Layer</text>
  <text x="845" y="630" text-anchor="middle" fill="#6B7280" font-size="9">Anonymized aggregate learnings</text>

  <!-- Network effect text -->
  <text x="845" y="660" text-anchor="middle" fill="#7C3AED" font-size="11" font-weight="bold">More federations = richer intelligence = smarter agents</text>
  <text x="845" y="680" text-anchor="middle" fill="#374151" font-size="11">Every organization that joins makes every other organization smarter</text>

  <!-- Revenue labels at bottom -->
  <rect x="650" y="695" width="95" height="22" rx="11" fill="#0891B2" opacity="0.15"/>
  <text x="697" y="710" text-anchor="middle" fill="#0891B2" font-size="9" font-weight="bold">MaaS $/mo</text>
  <rect x="755" y="695" width="115" height="22" rx="11" fill="#D97706" opacity="0.15"/>
  <text x="812" y="710" text-anchor="middle" fill="#D97706" font-size="9" font-weight="bold">Enterprise $$$/yr</text>
  <rect x="880" y="695" width="105" height="22" rx="11" fill="#7C3AED" opacity="0.15"/>
  <text x="932" y="710" text-anchor="middle" fill="#7C3AED" font-size="9" font-weight="bold">Intel $$$$$</text>

  <!-- Bottom-left: The pitch -->
  <rect x="80" y="560" width="500" height="80" rx="12" fill="#1E3A5F" filter="url(#shadow)"/>
  <text x="330" y="588" text-anchor="middle" fill="white" font-size="14" font-weight="bold">"I built Level Up in a week --- 12+ agents, 100+ users,</text>
  <text x="330" y="610" text-anchor="middle" fill="white" font-size="14" font-weight="bold">self-evolving intelligence. That was project one."</text>
  <text x="330" y="630" text-anchor="middle" fill="#22D3EE" font-size="12" font-weight="bold">Project two: the memory layer for the entire agent economy.</text>

  <!-- Roadmap summary -->
  <rect x="80" y="658" width="500" height="70" rx="10" fill="white" stroke="#2563EB" stroke-width="1.5"/>
  <text x="120" y="680" fill="#1E3A5F" font-size="11" font-weight="bold">Phase 1 (M1-3)</text>
  <text x="120" y="695" fill="#6B7280" font-size="9">Single-federation</text>
  <text x="120" y="708" fill="#6B7280" font-size="9">prototype on Level Up</text>

  <text x="250" y="680" fill="#1E3A5F" font-size="11" font-weight="bold">Phase 2 (M4-6)</text>
  <text x="250" y="695" fill="#6B7280" font-size="9">Blockchain sync</text>
  <text x="250" y="708" fill="#6B7280" font-size="9">+ PoE consensus</text>

  <text x="380" y="680" fill="#1E3A5F" font-size="11" font-weight="bold">Phase 3 (M7-9)</text>
  <text x="380" y="695" fill="#6B7280" font-size="9">Hierarchical</text>
  <text x="380" y="708" fill="#6B7280" font-size="9">distillation</text>

  <text x="495" y="680" fill="#1E3A5F" font-size="11" font-weight="bold">Phase 4 (M10-12)</text>
  <text x="495" y="695" fill="#6B7280" font-size="9">Cross-federation</text>
  <text x="495" y="708" fill="#6B7280" font-size="9">+ public SDK</text>
</svg>